<svg width="188" height="34" viewBox="0 0 188 34" fill="none" xmlns="http://www.w3.org/2000/svg">
<path d="M29.2188 20.1875C29.2188 20.3284 29.1628 20.4635 29.0632 20.5632C28.9635 20.6628 28.8284 20.7188 28.6875 20.7188H24.9688V23.9062H27.625C27.7659 23.9062 27.901 23.9622 28.0007 24.0618C28.1003 24.1615 28.1562 24.2966 28.1562 24.4375C28.1562 24.5784 28.1003 24.7135 28.0007 24.8132C27.901 24.9128 27.7659 24.9688 27.625 24.9688H24.9688V27.625C24.9688 27.7659 24.9128 27.901 24.8132 28.0007C24.7135 28.1003 24.5784 28.1562 24.4375 28.1562C24.2966 28.1562 24.1615 28.1003 24.0618 28.0007C23.9622 27.901 23.9062 27.7659 23.9062 27.625V20.1875C23.9062 20.0466 23.9622 19.9115 24.0618 19.8118C24.1615 19.7122 24.2966 19.6562 24.4375 19.6562H28.6875C28.8284 19.6562 28.9635 19.7122 29.0632 19.8118C29.1628 19.9115 29.2188 20.0466 29.2188 20.1875ZM11.6875 22.8438C11.6875 23.6891 11.3517 24.4999 10.7539 25.0977C10.1561 25.6954 9.34538 26.0312 8.5 26.0312H6.90625V27.625C6.90625 27.7659 6.85028 27.901 6.75065 28.0007C6.65102 28.1003 6.5159 28.1562 6.375 28.1562C6.2341 28.1562 6.09898 28.1003 5.99935 28.0007C5.89972 27.901 5.84375 27.7659 5.84375 27.625V20.1875C5.84375 20.0466 5.89972 19.9115 5.99935 19.8118C6.09898 19.7122 6.2341 19.6562 6.375 19.6562H8.5C9.34538 19.6562 10.1561 19.9921 10.7539 20.5898C11.3517 21.1876 11.6875 21.9984 11.6875 22.8438ZM10.625 22.8438C10.625 22.2802 10.4011 21.7397 10.0026 21.3411C9.60409 20.9426 9.06359 20.7188 8.5 20.7188H6.90625V24.9688H8.5C9.06359 24.9688 9.60409 24.7449 10.0026 24.3464C10.4011 23.9478 10.625 23.4073 10.625 22.8438ZM21.25 23.9062C21.25 25.0334 20.8022 26.1144 20.0052 26.9115C19.2082 27.7085 18.1272 28.1562 17 28.1562H14.875C14.7341 28.1562 14.599 28.1003 14.4993 28.0007C14.3997 27.901 14.3438 27.7659 14.3438 27.625V20.1875C14.3438 20.0466 14.3997 19.9115 14.4993 19.8118C14.599 19.7122 14.7341 19.6562 14.875 19.6562H17C18.1272 19.6562 19.2082 20.104 20.0052 20.901C20.8022 21.6981 21.25 22.7791 21.25 23.9062ZM20.1875 23.9062C20.1875 23.0609 19.8517 22.2501 19.2539 21.6523C18.6561 21.0546 17.8454 20.7188 17 20.7188H15.4062V27.0938H17C17.8454 27.0938 18.6561 26.7579 19.2539 26.1602C19.8517 25.5624 20.1875 24.7516 20.1875 23.9062ZM5.84375 14.875V5.3125C5.84375 4.88981 6.01166 4.48443 6.31055 4.18555C6.60943 3.88666 7.01481 3.71875 7.4375 3.71875H20.1875C20.2573 3.7187 20.3264 3.73239 20.3909 3.75905C20.4554 3.78571 20.514 3.82482 20.5634 3.87414L28.0009 11.3116C28.0502 11.361 28.0893 11.4196 28.1159 11.4841C28.1426 11.5486 28.1563 11.6177 28.1562 11.6875V14.875C28.1562 15.0159 28.1003 15.151 28.0007 15.2507C27.901 15.3503 27.7659 15.4062 27.625 15.4062C27.4841 15.4062 27.349 15.3503 27.2493 15.2507C27.1497 15.151 27.0938 15.0159 27.0938 14.875V12.2188H20.1875C20.0466 12.2188 19.9115 12.1628 19.8118 12.0632C19.7122 11.9635 19.6562 11.8284 19.6562 11.6875V4.78125H7.4375C7.2966 4.78125 7.16148 4.83722 7.06185 4.93685C6.96222 5.03648 6.90625 5.1716 6.90625 5.3125V14.875C6.90625 15.0159 6.85028 15.151 6.75065 15.2507C6.65102 15.3503 6.5159 15.4062 6.375 15.4062C6.2341 15.4062 6.09898 15.3503 5.99935 15.2507C5.89972 15.151 5.84375 15.0159 5.84375 14.875ZM20.7188 11.1562H26.342L20.7188 5.53164V11.1562Z" fill="#221477"/>
<path d="M45.4146 23H43.1367L43.1514 21.5425H45.4146C46.0737 21.5425 46.6255 21.3984 47.0698 21.1104C47.519 20.8223 47.856 20.4097 48.0806 19.8726C48.3101 19.3354 48.4248 18.6958 48.4248 17.9536V17.375C48.4248 16.7988 48.3589 16.2886 48.2271 15.8442C48.1001 15.3999 47.9097 15.0264 47.6558 14.7236C47.4067 14.4209 47.0991 14.1914 46.7329 14.0352C46.3716 13.8789 45.9541 13.8008 45.4805 13.8008H43.0928V12.3359H45.4805C46.1885 12.3359 46.8354 12.4556 47.4214 12.6948C48.0073 12.9292 48.5127 13.2686 48.9375 13.7129C49.3672 14.1572 49.6968 14.6895 49.9263 15.3096C50.1558 15.9297 50.2705 16.623 50.2705 17.3896V17.9536C50.2705 18.7202 50.1558 19.4136 49.9263 20.0337C49.6968 20.6538 49.3672 21.186 48.9375 21.6304C48.5078 22.0698 47.9951 22.4092 47.3994 22.6484C46.8086 22.8828 46.147 23 45.4146 23ZM44.1548 12.3359V23H42.3164V12.3359H44.1548ZM51.6035 19.1255V18.957C51.6035 18.3857 51.6865 17.856 51.8525 17.3677C52.0186 16.8745 52.2578 16.4473 52.5703 16.0859C52.8877 15.7197 53.2734 15.4365 53.7275 15.2363C54.1865 15.0312 54.7041 14.9287 55.2803 14.9287C55.8613 14.9287 56.3789 15.0312 56.833 15.2363C57.292 15.4365 57.6802 15.7197 57.9976 16.0859C58.3149 16.4473 58.5566 16.8745 58.7227 17.3677C58.8887 17.856 58.9717 18.3857 58.9717 18.957V19.1255C58.9717 19.6968 58.8887 20.2266 58.7227 20.7148C58.5566 21.2031 58.3149 21.6304 57.9976 21.9966C57.6802 22.3579 57.2944 22.6411 56.8403 22.8462C56.3862 23.0464 55.8711 23.1465 55.2949 23.1465C54.7139 23.1465 54.1938 23.0464 53.7349 22.8462C53.2808 22.6411 52.895 22.3579 52.5776 21.9966C52.2603 21.6304 52.0186 21.2031 51.8525 20.7148C51.6865 20.2266 51.6035 19.6968 51.6035 19.1255ZM53.3687 18.957V19.1255C53.3687 19.4819 53.4053 19.8188 53.4785 20.1362C53.5518 20.4536 53.6665 20.7319 53.8228 20.9712C53.979 21.2104 54.1792 21.3984 54.4233 21.5352C54.6675 21.6719 54.958 21.7402 55.2949 21.7402C55.6221 21.7402 55.9053 21.6719 56.1445 21.5352C56.3887 21.3984 56.5889 21.2104 56.7451 20.9712C56.9014 20.7319 57.0161 20.4536 57.0894 20.1362C57.1675 19.8188 57.2065 19.4819 57.2065 19.1255V18.957C57.2065 18.6055 57.1675 18.2734 57.0894 17.9609C57.0161 17.6436 56.8989 17.3628 56.7378 17.1187C56.5815 16.8745 56.3813 16.6841 56.1372 16.5474C55.8979 16.4058 55.6123 16.335 55.2803 16.335C54.9482 16.335 54.6602 16.4058 54.416 16.5474C54.1768 16.6841 53.979 16.8745 53.8228 17.1187C53.6665 17.3628 53.5518 17.6436 53.4785 17.9609C53.4053 18.2734 53.3687 18.6055 53.3687 18.957ZM62.6045 21.2422L64.4355 15.0752H65.5635L65.2559 16.9209L63.4102 23H62.3994L62.6045 21.2422ZM61.5278 15.0752L62.9561 21.2715L63.0732 23H61.9453L59.7993 15.0752H61.5278ZM67.2773 21.1982L68.6616 15.0752H70.3828L68.2441 23H67.1162L67.2773 21.1982ZM65.7539 15.0752L67.563 21.1689L67.79 23H66.7793L64.9116 16.9136L64.604 15.0752H65.7539ZM73.3345 16.7671V23H71.5693V15.0752H73.2319L73.3345 16.7671ZM73.0195 18.7446L72.4482 18.7373C72.4531 18.1758 72.5312 17.6606 72.6826 17.1919C72.8389 16.7231 73.0537 16.3203 73.3271 15.9834C73.6055 15.6465 73.9375 15.3877 74.3232 15.207C74.709 15.0215 75.1387 14.9287 75.6123 14.9287C75.9932 14.9287 76.3374 14.9824 76.645 15.0898C76.9575 15.1924 77.2236 15.3608 77.4434 15.5952C77.668 15.8296 77.8389 16.1348 77.9561 16.5107C78.0732 16.8818 78.1318 17.3384 78.1318 17.8804V23H76.3594V17.873C76.3594 17.4922 76.3032 17.1919 76.1909 16.9722C76.0835 16.7476 75.9248 16.5889 75.7148 16.4961C75.5098 16.3984 75.2534 16.3496 74.9458 16.3496C74.6431 16.3496 74.3721 16.4131 74.1328 16.54C73.8936 16.667 73.6909 16.8403 73.5249 17.0601C73.3638 17.2798 73.2393 17.5337 73.1514 17.8218C73.0635 18.1099 73.0195 18.4175 73.0195 18.7446ZM81.8232 11.75V23H80.0508V11.75H81.8232ZM83.4199 19.1255V18.957C83.4199 18.3857 83.5029 17.856 83.6689 17.3677C83.835 16.8745 84.0742 16.4473 84.3867 16.0859C84.7041 15.7197 85.0898 15.4365 85.5439 15.2363C86.0029 15.0312 86.5205 14.9287 87.0967 14.9287C87.6777 14.9287 88.1953 15.0312 88.6494 15.2363C89.1084 15.4365 89.4966 15.7197 89.814 16.0859C90.1313 16.4473 90.373 16.8745 90.5391 17.3677C90.7051 17.856 90.7881 18.3857 90.7881 18.957V19.1255C90.7881 19.6968 90.7051 20.2266 90.5391 20.7148C90.373 21.2031 90.1313 21.6304 89.814 21.9966C89.4966 22.3579 89.1108 22.6411 88.6567 22.8462C88.2026 23.0464 87.6875 23.1465 87.1113 23.1465C86.5303 23.1465 86.0103 23.0464 85.5513 22.8462C85.0972 22.6411 84.7114 22.3579 84.394 21.9966C84.0767 21.6304 83.835 21.2031 83.6689 20.7148C83.5029 20.2266 83.4199 19.6968 83.4199 19.1255ZM85.1851 18.957V19.1255C85.1851 19.4819 85.2217 19.8188 85.2949 20.1362C85.3682 20.4536 85.4829 20.7319 85.6392 20.9712C85.7954 21.2104 85.9956 21.3984 86.2397 21.5352C86.4839 21.6719 86.7744 21.7402 87.1113 21.7402C87.4385 21.7402 87.7217 21.6719 87.9609 21.5352C88.2051 21.3984 88.4053 21.2104 88.5615 20.9712C88.7178 20.7319 88.8325 20.4536 88.9058 20.1362C88.9839 19.8188 89.0229 19.4819 89.0229 19.1255V18.957C89.0229 18.6055 88.9839 18.2734 88.9058 17.9609C88.8325 17.6436 88.7153 17.3628 88.5542 17.1187C88.3979 16.8745 88.1978 16.6841 87.9536 16.5474C87.7144 16.4058 87.4287 16.335 87.0967 16.335C86.7646 16.335 86.4766 16.4058 86.2324 16.5474C85.9932 16.6841 85.7954 16.8745 85.6392 17.1187C85.4829 17.3628 85.3682 17.6436 85.2949 17.9609C85.2217 18.2734 85.1851 18.6055 85.1851 18.957ZM96.7354 21.4106V17.6313C96.7354 17.3481 96.6841 17.104 96.5815 16.8989C96.479 16.6938 96.3228 16.5352 96.1128 16.4229C95.9077 16.3105 95.6489 16.2544 95.3364 16.2544C95.0483 16.2544 94.7993 16.3032 94.5894 16.4009C94.3794 16.4985 94.2158 16.6304 94.0986 16.7964C93.9814 16.9624 93.9229 17.1504 93.9229 17.3604H92.165C92.165 17.0479 92.2407 16.7451 92.3921 16.4521C92.5435 16.1592 92.7632 15.8979 93.0513 15.6685C93.3394 15.439 93.6836 15.2583 94.084 15.1265C94.4844 14.9946 94.9336 14.9287 95.4316 14.9287C96.0273 14.9287 96.5547 15.0288 97.0137 15.229C97.4775 15.4292 97.8413 15.7319 98.105 16.1372C98.3735 16.5376 98.5078 17.0405 98.5078 17.646V21.1689C98.5078 21.5303 98.5322 21.855 98.5811 22.1431C98.6348 22.4263 98.7104 22.6729 98.8081 22.8828V23H96.999C96.916 22.8096 96.8501 22.5679 96.8013 22.2749C96.7573 21.9771 96.7354 21.689 96.7354 21.4106ZM96.9917 18.1807L97.0063 19.272H95.7393C95.4121 19.272 95.124 19.3037 94.875 19.3672C94.626 19.4258 94.4185 19.5137 94.2524 19.6309C94.0864 19.748 93.9619 19.8896 93.8789 20.0557C93.7959 20.2217 93.7544 20.4097 93.7544 20.6196C93.7544 20.8296 93.8032 21.0225 93.9009 21.1982C93.9985 21.3691 94.1401 21.5034 94.3257 21.6011C94.5161 21.6987 94.7456 21.7476 95.0142 21.7476C95.3755 21.7476 95.6904 21.6743 95.959 21.5278C96.2324 21.3765 96.4473 21.1934 96.6035 20.9785C96.7598 20.7588 96.8428 20.5513 96.8525 20.356L97.4238 21.1396C97.3652 21.3398 97.2651 21.5547 97.1235 21.7842C96.9819 22.0137 96.7964 22.2334 96.5669 22.4434C96.3423 22.6484 96.0713 22.8169 95.7539 22.9487C95.4414 23.0806 95.0801 23.1465 94.6699 23.1465C94.1523 23.1465 93.6909 23.0439 93.2856 22.8389C92.8804 22.6289 92.563 22.3481 92.3335 21.9966C92.104 21.6401 91.9893 21.2373 91.9893 20.7881C91.9893 20.3682 92.0674 19.9971 92.2236 19.6748C92.3848 19.3477 92.6191 19.0742 92.9268 18.8545C93.2393 18.6348 93.6201 18.4688 94.0693 18.3564C94.5186 18.2393 95.0312 18.1807 95.6074 18.1807H96.9917ZM105.188 21.3594V11.75H106.96V23H105.356L105.188 21.3594ZM100.031 19.1255V18.9717C100.031 18.3711 100.102 17.8242 100.244 17.3311C100.385 16.833 100.59 16.4058 100.859 16.0493C101.127 15.688 101.455 15.4121 101.84 15.2217C102.226 15.0264 102.661 14.9287 103.144 14.9287C103.623 14.9287 104.042 15.0215 104.404 15.207C104.765 15.3926 105.073 15.6587 105.327 16.0054C105.581 16.3472 105.783 16.7573 105.935 17.2358C106.086 17.7095 106.193 18.2368 106.257 18.8179V19.3086C106.193 19.875 106.086 20.3926 105.935 20.8613C105.783 21.3301 105.581 21.7354 105.327 22.0771C105.073 22.4189 104.763 22.6826 104.396 22.8682C104.035 23.0537 103.613 23.1465 103.129 23.1465C102.651 23.1465 102.219 23.0464 101.833 22.8462C101.452 22.646 101.127 22.3652 100.859 22.0039C100.59 21.6426 100.385 21.2178 100.244 20.7295C100.102 20.2363 100.031 19.7017 100.031 19.1255ZM101.796 18.9717V19.1255C101.796 19.4868 101.828 19.8237 101.892 20.1362C101.96 20.4487 102.065 20.7246 102.207 20.9639C102.348 21.1982 102.531 21.3838 102.756 21.5205C102.985 21.6523 103.259 21.7183 103.576 21.7183C103.977 21.7183 104.306 21.6304 104.565 21.4546C104.824 21.2788 105.026 21.042 105.173 20.7441C105.324 20.4414 105.427 20.1045 105.48 19.7334V18.4077C105.451 18.1196 105.39 17.8511 105.297 17.6021C105.209 17.353 105.09 17.1357 104.938 16.9502C104.787 16.7598 104.599 16.6133 104.375 16.5107C104.155 16.4033 103.894 16.3496 103.591 16.3496C103.269 16.3496 102.995 16.418 102.771 16.5547C102.546 16.6914 102.36 16.8794 102.214 17.1187C102.072 17.3579 101.967 17.6362 101.899 17.9536C101.831 18.271 101.796 18.6104 101.796 18.9717ZM114.68 12.3359V23H112.841V12.3359H114.68ZM118.54 16.7671V23H116.774V15.0752H118.437L118.54 16.7671ZM118.225 18.7446L117.653 18.7373C117.658 18.1758 117.736 17.6606 117.888 17.1919C118.044 16.7231 118.259 16.3203 118.532 15.9834C118.811 15.6465 119.143 15.3877 119.528 15.207C119.914 15.0215 120.344 14.9287 120.817 14.9287C121.198 14.9287 121.542 14.9824 121.85 15.0898C122.163 15.1924 122.429 15.3608 122.648 15.5952C122.873 15.8296 123.044 16.1348 123.161 16.5107C123.278 16.8818 123.337 17.3384 123.337 17.8804V23H121.564V17.873C121.564 17.4922 121.508 17.1919 121.396 16.9722C121.289 16.7476 121.13 16.5889 120.92 16.4961C120.715 16.3984 120.458 16.3496 120.151 16.3496C119.848 16.3496 119.577 16.4131 119.338 16.54C119.099 16.667 118.896 16.8403 118.73 17.0601C118.569 17.2798 118.444 17.5337 118.356 17.8218C118.269 18.1099 118.225 18.4175 118.225 18.7446ZM127.717 21.6011L129.658 15.0752H131.489L128.735 23H127.592L127.717 21.6011ZM126.23 15.0752L128.208 21.6304L128.303 23H127.16L124.392 15.0752H126.23ZM132.126 19.1255V18.957C132.126 18.3857 132.209 17.856 132.375 17.3677C132.541 16.8745 132.78 16.4473 133.093 16.0859C133.41 15.7197 133.796 15.4365 134.25 15.2363C134.709 15.0312 135.227 14.9287 135.803 14.9287C136.384 14.9287 136.901 15.0312 137.355 15.2363C137.814 15.4365 138.203 15.7197 138.52 16.0859C138.837 16.4473 139.079 16.8745 139.245 17.3677C139.411 17.856 139.494 18.3857 139.494 18.957V19.1255C139.494 19.6968 139.411 20.2266 139.245 20.7148C139.079 21.2031 138.837 21.6304 138.52 21.9966C138.203 22.3579 137.817 22.6411 137.363 22.8462C136.909 23.0464 136.394 23.1465 135.817 23.1465C135.236 23.1465 134.716 23.0464 134.257 22.8462C133.803 22.6411 133.417 22.3579 133.1 21.9966C132.783 21.6304 132.541 21.2031 132.375 20.7148C132.209 20.2266 132.126 19.6968 132.126 19.1255ZM133.891 18.957V19.1255C133.891 19.4819 133.928 19.8188 134.001 20.1362C134.074 20.4536 134.189 20.7319 134.345 20.9712C134.501 21.2104 134.702 21.3984 134.946 21.5352C135.19 21.6719 135.48 21.7402 135.817 21.7402C136.145 21.7402 136.428 21.6719 136.667 21.5352C136.911 21.3984 137.111 21.2104 137.268 20.9712C137.424 20.7319 137.539 20.4536 137.612 20.1362C137.69 19.8188 137.729 19.4819 137.729 19.1255V18.957C137.729 18.6055 137.69 18.2734 137.612 17.9609C137.539 17.6436 137.421 17.3628 137.26 17.1187C137.104 16.8745 136.904 16.6841 136.66 16.5474C136.42 16.4058 136.135 16.335 135.803 16.335C135.471 16.335 135.183 16.4058 134.938 16.5474C134.699 16.6841 134.501 16.8745 134.345 17.1187C134.189 17.3628 134.074 17.6436 134.001 17.9609C133.928 18.2734 133.891 18.6055 133.891 18.957ZM142.863 15.0752V23H141.091V15.0752H142.863ZM140.974 12.9951C140.974 12.7266 141.062 12.5044 141.237 12.3286C141.418 12.1479 141.667 12.0576 141.984 12.0576C142.297 12.0576 142.543 12.1479 142.724 12.3286C142.905 12.5044 142.995 12.7266 142.995 12.9951C142.995 13.2588 142.905 13.4785 142.724 13.6543C142.543 13.8301 142.297 13.918 141.984 13.918C141.667 13.918 141.418 13.8301 141.237 13.6543C141.062 13.4785 140.974 13.2588 140.974 12.9951ZM148.034 21.7402C148.322 21.7402 148.581 21.6841 148.811 21.5718C149.045 21.4546 149.233 21.2935 149.375 21.0884C149.521 20.8833 149.602 20.6465 149.616 20.3779H151.279C151.269 20.8906 151.118 21.3569 150.825 21.7769C150.532 22.1968 150.144 22.5312 149.66 22.7803C149.177 23.0244 148.642 23.1465 148.056 23.1465C147.451 23.1465 146.923 23.0439 146.474 22.8389C146.025 22.6289 145.651 22.3408 145.354 21.9746C145.056 21.6084 144.831 21.186 144.68 20.7075C144.533 20.229 144.46 19.7163 144.46 19.1694V18.9131C144.46 18.3662 144.533 17.8535 144.68 17.375C144.831 16.8916 145.056 16.4668 145.354 16.1006C145.651 15.7344 146.025 15.4487 146.474 15.2437C146.923 15.0337 147.448 14.9287 148.049 14.9287C148.684 14.9287 149.24 15.0557 149.719 15.3096C150.197 15.5586 150.573 15.9077 150.847 16.3569C151.125 16.8013 151.269 17.3188 151.279 17.9097H149.616C149.602 17.6167 149.528 17.353 149.396 17.1187C149.27 16.8794 149.089 16.689 148.854 16.5474C148.625 16.4058 148.349 16.335 148.027 16.335C147.67 16.335 147.375 16.4082 147.141 16.5547C146.906 16.6963 146.723 16.8916 146.591 17.1406C146.459 17.3848 146.364 17.6606 146.306 17.9683C146.252 18.271 146.225 18.5859 146.225 18.9131V19.1694C146.225 19.4966 146.252 19.814 146.306 20.1216C146.359 20.4292 146.452 20.7051 146.584 20.9492C146.721 21.1885 146.906 21.3813 147.141 21.5278C147.375 21.6694 147.673 21.7402 148.034 21.7402ZM156.127 23.1465C155.542 23.1465 155.012 23.0513 154.538 22.8608C154.069 22.6655 153.669 22.3945 153.337 22.0479C153.01 21.7012 152.758 21.2935 152.583 20.8247C152.407 20.356 152.319 19.8506 152.319 19.3086V19.0156C152.319 18.3955 152.409 17.834 152.59 17.3311C152.771 16.8281 153.022 16.3984 153.344 16.042C153.667 15.6807 154.047 15.4048 154.487 15.2144C154.926 15.0239 155.402 14.9287 155.915 14.9287C156.481 14.9287 156.977 15.0239 157.402 15.2144C157.827 15.4048 158.178 15.6733 158.457 16.02C158.74 16.3618 158.95 16.7695 159.086 17.2432C159.228 17.7168 159.299 18.2393 159.299 18.8105V19.5649H153.176V18.2979H157.556V18.1587C157.546 17.8413 157.482 17.5435 157.365 17.2651C157.253 16.9868 157.08 16.7622 156.845 16.5913C156.611 16.4204 156.298 16.335 155.908 16.335C155.615 16.335 155.354 16.3984 155.124 16.5254C154.899 16.6475 154.711 16.8257 154.56 17.0601C154.409 17.2944 154.292 17.5776 154.208 17.9097C154.13 18.2368 154.091 18.6055 154.091 19.0156V19.3086C154.091 19.6553 154.138 19.9775 154.23 20.2754C154.328 20.5684 154.47 20.8247 154.655 21.0444C154.841 21.2642 155.065 21.4375 155.329 21.5645C155.593 21.6865 155.893 21.7476 156.23 21.7476C156.655 21.7476 157.033 21.6621 157.365 21.4912C157.697 21.3203 157.985 21.0786 158.229 20.7661L159.16 21.667C158.989 21.916 158.767 22.1553 158.493 22.3848C158.22 22.6094 157.885 22.7925 157.49 22.9341C157.099 23.0757 156.645 23.1465 156.127 23.1465Z" fill="#221477"/>
</svg>
